<?xml version="1.0" encoding="UTF-8"?> <svg xmlns="http://www.w3.org/2000/svg" viewBox="0 0 371.8 61.14"><defs><style>.cls-1{fill:#191919;}</style></defs><g id="Capa_2" data-name="Capa 2"><g id="Capa_1-2" data-name="Capa 1"><path class="cls-1" d="M118.27,36.19h10.54v-8.9h10.88v8.9h10.54V12.47H139.69v7.9H128.81v-7.9H118.27Z"></path><path class="cls-1" d="M209.19,36.85c2.31,0,5.34-.72,6.72-1.75l-1.38-4.05a3.08,3.08,0,0,1-1.65.49,2.5,2.5,0,0,1-2.11-.92l-1.65-2a3.78,3.78,0,0,0-1.87-1.38v0c4.34-1,6.78-3.43,6.78-7,0-5-3.72-7.74-10.44-7.74H182.73V36.19h10.55V28.94h2.79a5,5,0,0,1,4.16,1.88l1.22,1.58C203,34.48,205,36.85,209.19,36.85ZM193.28,23.34V18.4h6.91c2.11,0,3.3.89,3.3,2.47s-1.19,2.47-3.33,2.47Z"></path><path class="cls-1" d="M153.74,49.48h26V43.22H164V40.09h14.17V34.82H164V32h15.49V25.75h-25.7Z"></path><path class="cls-1" d="M236.67,50.3c10.74,0,17.79-5,17.79-12.68s-7.05-12.69-17.79-12.69-17.79,5-17.79,12.69S225.93,50.3,236.67,50.3Zm0-7.25c-4.38,0-7.25-2.14-7.25-5.43s2.87-5.44,7.25-5.44,7.25,2.14,7.25,5.44S241.05,43.05,236.67,43.05Z"></path><path class="cls-1" d="M270.58,35.68c7.58,0,13.41-3.49,15-9l-4.25-1c-1.19,3.92-5.3,6.42-10.68,6.42-7.08,0-11.6-3.46-11.6-8.86s4.12-8.87,10.58-8.87c4.68,0,8.34,2.21,9.46,5.7l4.15-1.21c-1.71-4.91-7.05-8-13.71-8-9.22,0-15.06,4.84-15.06,12.42S260.72,35.68,270.58,35.68Z"></path><path class="cls-1" d="M279.61,49.48h4.78l2.67-5.11h14.63l2.67,5.11h4.81L297.11,26.12h-5.34Zm8.8-8.31,6-11.72h.06l5.93,11.72Z"></path><path class="cls-1" d="M306.69,34.49h4.41V15.9h.07l10.15,18.59h4.57L336,15.9h.07V34.49h4.41V11.13H334L323.59,30.37h0L313,11.13h-6.35Z"></path><path class="cls-1" d="M345.54,49.4h4.58V41.32h12.35c6,0,9.29-2.8,9.33-7.57S368.47,26,362.51,26h-17Zm4.58-11.24V29.23h11.23c3.76,0,5.87,1.65,5.87,4.48s-2.11,4.45-5.87,4.45Z"></path><path class="cls-1" d="M95.66,35.4,79.24,4.69A8.87,8.87,0,0,0,71.59,0h-.17a8.87,8.87,0,0,0-7.65,4.39L48.27,30.85,32.77,4.39a8.86,8.86,0,0,0-15.47.3L.89,35.4a7.5,7.5,0,0,0,.47,7.86L11.65,57.94a7.53,7.53,0,0,0,6.16,3.2H78.74a7.52,7.52,0,0,0,6.15-3.2L95.18,43.26A7.53,7.53,0,0,0,95.66,35.4ZM21.72,46.1l-5.39-7.69,9-16.91L39.78,46.1Zm53.1,0h-18L71.18,21.5l9,16.91Z"></path></g></g></svg> 